<svg id="visual" viewBox="0 0 900 600" width="900" height="600" xmlns="http://www.w3.org/2000/svg" xmlns:xlink="http://www.w3.org/1999/xlink" version="1.1"><path d="M0 149L21.5 160.3C43 171.7 86 194.3 128.8 201.5C171.7 208.7 214.3 200.3 257.2 185.5C300 170.7 343 149.3 385.8 148.3C428.7 147.3 471.3 166.7 514.2 170.5C557 174.3 600 162.7 642.8 167.2C685.7 171.7 728.3 192.3 771.2 198.5C814 204.7 857 196.3 878.5 192.2L900 188L900 0L878.5 0C857 0 814 0 771.2 0C728.3 0 685.7 0 642.8 0C600 0 557 0 514.2 0C471.3 0 428.7 0 385.8 0C343 0 300 0 257.2 0C214.3 0 171.7 0 128.8 0C86 0 43 0 21.5 0L0 0Z" fill="#b6daf2" stroke-linecap="round" stroke-linejoin="miter"></path></svg>